<?xml version="1.0" encoding="UTF-8"?>
<svg xmlns="http://www.w3.org/2000/svg" xmlns:xlink="http://www.w3.org/1999/xlink" width="16px" height="16px" viewBox="0 0 16 16" version="1.1">
<g id="surface19812">
<path style=" stroke:none;fill-rule:nonzero;fill:rgb(18.039216%,20.392157%,21.176471%);fill-opacity:1;" d="M 2 3 L 4 3 C 4.550781 3 5 3.449219 5 4 C 5 4.550781 4.550781 5 4 5 L 2 5 C 1.449219 5 1 4.550781 1 4 C 1 3.449219 1.449219 3 2 3 Z M 2 3 "/>
<path style=" stroke:none;fill-rule:nonzero;fill:rgb(18.039216%,20.392157%,21.176471%);fill-opacity:1;" d="M 7 3 L 9 3 C 9.550781 3 10 3.449219 10 4 C 10 4.550781 9.550781 5 9 5 L 7 5 C 6.449219 5 6 4.550781 6 4 C 6 3.449219 6.449219 3 7 3 Z M 7 3 "/>
<path style=" stroke:none;fill-rule:nonzero;fill:rgb(18.039216%,20.392157%,21.176471%);fill-opacity:1;" d="M 12 3 L 14 3 C 14.550781 3 15 3.449219 15 4 C 15 4.550781 14.550781 5 14 5 L 12 5 C 11.449219 5 11 4.550781 11 4 C 11 3.449219 11.449219 3 12 3 Z M 12 3 "/>
<path style=" stroke:none;fill-rule:nonzero;fill:rgb(18.039216%,20.392157%,21.176471%);fill-opacity:1;" d="M 1 7 L 5 7 L 5 8 L 1 8 Z M 1 7 "/>
<path style=" stroke:none;fill-rule:nonzero;fill:rgb(18.039216%,20.392157%,21.176471%);fill-opacity:1;" d="M 1 10 L 5 10 L 5 11 L 1 11 Z M 1 10 "/>
<path style=" stroke:none;fill-rule:nonzero;fill:rgb(18.039216%,20.392157%,21.176471%);fill-opacity:1;" d="M 1 13 L 5 13 L 5 14 L 1 14 Z M 1 13 "/>
<path style=" stroke:none;fill-rule:nonzero;fill:rgb(18.039216%,20.392157%,21.176471%);fill-opacity:1;" d="M 6 7 L 10 7 L 10 8 L 6 8 Z M 6 7 "/>
<path style=" stroke:none;fill-rule:nonzero;fill:rgb(18.039216%,20.392157%,21.176471%);fill-opacity:1;" d="M 6 10 L 10 10 L 10 11 L 6 11 Z M 6 10 "/>
<path style=" stroke:none;fill-rule:nonzero;fill:rgb(18.039216%,20.392157%,21.176471%);fill-opacity:1;" d="M 6 13 L 10 13 L 10 14 L 6 14 Z M 6 13 "/>
<path style=" stroke:none;fill-rule:nonzero;fill:rgb(18.039216%,20.392157%,21.176471%);fill-opacity:1;" d="M 11 7 L 15 7 L 15 8 L 11 8 Z M 11 7 "/>
<path style=" stroke:none;fill-rule:nonzero;fill:rgb(18.039216%,20.392157%,21.176471%);fill-opacity:1;" d="M 11 10 L 15 10 L 15 11 L 11 11 Z M 11 10 "/>
<path style=" stroke:none;fill-rule:nonzero;fill:rgb(18.039216%,20.392157%,21.176471%);fill-opacity:1;" d="M 11 13 L 15 13 L 15 14 L 11 14 Z M 11 13 "/>
</g>
</svg>
