<?xml version="1.0" encoding="UTF-8"?>
<svg xmlns="http://www.w3.org/2000/svg" xmlns:xlink="http://www.w3.org/1999/xlink" width="16px" height="16px" viewBox="0 0 16 16" version="1.1">
<g id="surface19818">
<path style=" stroke:none;fill-rule:nonzero;fill:rgb(18.039216%,20.392157%,21.176471%);fill-opacity:1;" d="M 3.042969 1 C 1.914062 1 1 1.914062 1 3.042969 L 1 12.917969 C 1 14.050781 1.914062 14.960938 3.042969 14.960938 L 12.957031 14.960938 C 14.085938 14.960938 15 14.050781 15 12.917969 L 15 3.042969 C 15 1.914062 14.085938 1 12.957031 1 Z M 3 5.960938 L 13 5.960938 L 13 12.960938 L 3 12.960938 Z M 3 5.960938 "/>
<path style=" stroke:none;fill-rule:nonzero;fill:rgb(18.039216%,20.392157%,21.176471%);fill-opacity:1;" d="M 4 10 L 6 10 L 6 12 L 4 12 Z M 4 10 "/>
<path style=" stroke:none;fill-rule:nonzero;fill:rgb(18.039216%,20.392157%,21.176471%);fill-opacity:1;" d="M 7 10 L 9 10 L 9 12 L 7 12 Z M 7 10 "/>
<path style=" stroke:none;fill-rule:nonzero;fill:rgb(18.039216%,20.392157%,21.176471%);fill-opacity:1;" d="M 10 7 L 12 7 L 12 9 L 10 9 Z M 10 7 "/>
<path style=" stroke:none;fill-rule:nonzero;fill:rgb(18.039216%,20.392157%,21.176471%);fill-opacity:1;" d="M 7 7 L 9 7 L 9 9 L 7 9 Z M 7 7 "/>
<path style=" stroke:none;fill-rule:nonzero;fill:rgb(18.039216%,20.392157%,21.176471%);fill-opacity:1;" d="M 4 7 L 6 7 L 6 9 L 4 9 Z M 4 7 "/>
</g>
</svg>
