<?xml version="1.0" encoding="UTF-8"?>
<svg height="128px" viewBox="0 0 128 128" width="128px" xmlns="http://www.w3.org/2000/svg" xmlns:xlink="http://www.w3.org/1999/xlink">
    <linearGradient id="a" gradientTransform="matrix(-1 0 0 -1 -0.00005 -172)" gradientUnits="userSpaceOnUse" x1="-12.249268" x2="-115.523453" y1="-288.6633" y2="-288.6633">
        <stop offset="0" stop-color="#613583"/>
        <stop offset="0.0433748" stop-color="#af60ef"/>
        <stop offset="0.0920385" stop-color="#613583"/>
        <stop offset="0.903034" stop-color="#613583"/>
        <stop offset="0.955148" stop-color="#874ab4"/>
        <stop offset="1" stop-color="#3b214e"/>
    </linearGradient>
    <linearGradient id="b" gradientTransform="matrix(-1 0 0 -1 123.999942 -177)" gradientUnits="userSpaceOnUse" x1="7.99999" x2="111.999992" y1="-244" y2="-244">
        <stop offset="0" stop-color="#d5d3cf"/>
        <stop offset="0.0384615" stop-color="#f6f5f4"/>
        <stop offset="0.0769231" stop-color="#d5d3cf"/>
        <stop offset="0.923077" stop-color="#d5d3cf"/>
        <stop offset="0.961538" stop-color="#eeeeec"/>
        <stop offset="1" stop-color="#d5d3cf"/>
    </linearGradient>
    <linearGradient id="c" gradientTransform="matrix(-1 0 0 -1 -0.00005 -171)" gradientUnits="userSpaceOnUse" x1="-64" x2="-64" y1="-280" y2="-182">
        <stop offset="0" stop-color="#ffffff"/>
        <stop offset="1" stop-color="#f6f5f4"/>
    </linearGradient>
    <clipPath id="d">
        <rect height="128" width="128"/>
    </clipPath>
    <clipPath id="e">
        <rect height="128" width="128"/>
    </clipPath>
    <filter id="f" height="100%" width="100%" x="0%" y="0%">
        <feColorMatrix in="SourceGraphic" type="matrix" values="0 0 0 0 1 0 0 0 0 1 0 0 0 0 1 0 0 0 1 0"/>
    </filter>
    <mask id="g">
        <g clip-path="url(#e)" filter="url(#f)">
            <g clip-path="url(#d)">
                <path d="m 108 117 h -88 c -4.417969 0 -8 -4.234375 -8 -9.453125 v -70.09375 c 0 -5.21875 3.582031 -9.453125 8 -9.453125 h 88 c 4.417969 0 8 4.234375 8 9.453125 v 70.09375 c 0 5.21875 -3.582031 9.453125 -8 9.453125 z m 0 0" fill="url(#a)"/>
                <path d="m 108 115 h -88 c -4.417969 0 -8 -3.582031 -8 -8 v -24 c 0 -4.417969 3.582031 -8 8 -8 h 88 c 4.417969 0 8 3.582031 8 8 v 24 c 0 4.417969 -3.582031 8 -8 8 z m 0 0" fill="url(#b)"/>
                <path d="m 108 109 h -88 c -4.417969 0 -8 -3.582031 -8 -8 v -69.003906 c 0 -4.417969 3.582031 -8 8 -8 h 88 c 4.417969 0 8 3.582031 8 8 v 69.003906 c 0 4.417969 -3.582031 8 -8 8 z m 0 0" fill="url(#c)"/>
                <path d="m 20 13 c -4.433594 0 -8 3.566406 -8 8 v 15 h 104 v -15 c 0 -4.433594 -3.566406 -8 -8 -8 z m 0 0" fill="#9141ac"/>
                <path d="m 12 34 v 2 h 104 v -2 z m 0 0" fill="#613583"/>
                <path d="m 28.00005 266 c 0 2.210938 -1.789063 4 -4 4 c -2.210938 0 -4 -1.789062 -4 -4 s 1.789062 -4 4 -4 c 2.210937 0 4 1.789062 4 4 z m 0 0" fill="#c0bfbc" stroke="#fdfcfc" stroke-linecap="round" stroke-linejoin="round" stroke-width="2" transform="matrix(1 0 0 1 -0.00005 -170)"/>
                <path d="m 44.00005 266 c 0 2.210938 -1.789063 4 -4 4 c -2.210938 0 -4 -1.789062 -4 -4 s 1.789062 -4 4 -4 c 2.210937 0 4 1.789062 4 4 z m 0 0" fill="#c0bfbc" stroke="#fdfcfc" stroke-linecap="round" stroke-linejoin="round" stroke-width="2" transform="matrix(1 0 0 1 -0.00005 -170)"/>
                <path d="m 60.00005 266 c 0 2.210938 -1.789063 4 -4 4 c -2.210938 0 -4 -1.789062 -4 -4 s 1.789062 -4 4 -4 c 2.210937 0 4 1.789062 4 4 z m 0 0" fill="#c0bfbc" stroke="#fdfcfc" stroke-linecap="round" stroke-linejoin="round" stroke-width="2" transform="matrix(1 0 0 1 -0.00005 -170)"/>
                <path d="m 76.00005 266 c 0 2.210938 -1.789063 4 -4 4 c -2.210938 0 -4 -1.789062 -4 -4 s 1.789062 -4 4 -4 c 2.210937 0 4 1.789062 4 4 z m 0 0" fill="#fbfafa" stroke="#fdfcfc" stroke-linecap="round" stroke-linejoin="round" stroke-width="2" transform="matrix(1 0 0 1 -0.00005 -170)"/>
                <path d="m 92.00005 266 c 0 2.210938 -1.789063 4 -4 4 c -2.210938 0 -4 -1.789062 -4 -4 s 1.789062 -4 4 -4 c 2.210937 0 4 1.789062 4 4 z m 0 0" fill="#fbfafa" stroke="#fdfcfc" stroke-linecap="round" stroke-linejoin="round" stroke-width="2" transform="matrix(1 0 0 1 -0.00005 -170)"/>
                <path d="m 108.00005 266 c 0 2.210938 -1.789063 4 -4 4 c -2.210938 0 -4 -1.789062 -4 -4 s 1.789062 -4 4 -4 c 2.210937 0 4 1.789062 4 4 z m 0 0" fill="#fbfafa" stroke="#fdfcfc" stroke-linecap="round" stroke-linejoin="round" stroke-width="2" transform="matrix(1 0 0 1 -0.00005 -170)"/>
                <path d="m 28.00005 266 c 0 2.210938 -1.789063 4 -4 4 c -2.210938 0 -4 -1.789062 -4 -4 s 1.789062 -4 4 -4 c 2.210937 0 4 1.789062 4 4 z m 0 0" fill="#c0bfbc" stroke="#fdfcfc" stroke-linecap="round" stroke-linejoin="round" stroke-width="2" transform="matrix(1 0 0 1 -0.00005 -193)"/>
                <path d="m 44.00005 266 c 0 2.210938 -1.789063 4 -4 4 c -2.210938 0 -4 -1.789062 -4 -4 s 1.789062 -4 4 -4 c 2.210937 0 4 1.789062 4 4 z m 0 0" fill="#c0bfbc" stroke="#fdfcfc" stroke-linecap="round" stroke-linejoin="round" stroke-width="2" transform="matrix(1 0 0 1 -0.00005 -193)"/>
                <path d="m 60.00005 266 c 0 2.210938 -1.789063 4 -4 4 c -2.210938 0 -4 -1.789062 -4 -4 s 1.789062 -4 4 -4 c 2.210937 0 4 1.789062 4 4 z m 0 0" fill="#c0bfbc" stroke="#fdfcfc" stroke-linecap="round" stroke-linejoin="round" stroke-width="2" transform="matrix(1 0 0 1 -0.00005 -193)"/>
                <path d="m 76.00005 266 c 0 2.210938 -1.789063 4 -4 4 c -2.210938 0 -4 -1.789062 -4 -4 s 1.789062 -4 4 -4 c 2.210937 0 4 1.789062 4 4 z m 0 0" fill="#c0bfbc" stroke="#fdfcfc" stroke-linecap="round" stroke-linejoin="round" stroke-width="2" transform="matrix(1 0 0 1 -0.00005 -193)"/>
                <path d="m 92.00005 266 c 0 2.210938 -1.789063 4 -4 4 c -2.210938 0 -4 -1.789062 -4 -4 s 1.789062 -4 4 -4 c 2.210937 0 4 1.789062 4 4 z m 0 0" fill="#c0bfbc" stroke="#fdfcfc" stroke-linecap="round" stroke-linejoin="round" stroke-width="2" transform="matrix(1 0 0 1 -0.00005 -193)"/>
                <path d="m 108.00005 266 c 0 2.210938 -1.789063 4 -4 4 c -2.210938 0 -4 -1.789062 -4 -4 s 1.789062 -4 4 -4 c 2.210937 0 4 1.789062 4 4 z m 0 0" fill="#c0bfbc" stroke="#fdfcfc" stroke-linecap="round" stroke-linejoin="round" stroke-width="2" transform="matrix(1 0 0 1 -0.00005 -193)"/>
                <path d="m 28.00005 266 c 0 2.210938 -1.789063 4 -4 4 c -2.210938 0 -4 -1.789062 -4 -4 s 1.789062 -4 4 -4 c 2.210937 0 4 1.789062 4 4 z m 0 0" fill="#fbfafa" stroke="#fdfcfc" stroke-linecap="round" stroke-linejoin="round" stroke-width="2" transform="matrix(1 0 0 1 -0.00005 -216)"/>
                <path d="m 44.00005 266 c 0 2.210938 -1.789063 4 -4 4 c -2.210938 0 -4 -1.789062 -4 -4 s 1.789062 -4 4 -4 c 2.210937 0 4 1.789062 4 4 z m 0 0" fill="#c0bfbc" stroke="#fdfcfc" stroke-linecap="round" stroke-linejoin="round" stroke-width="2" transform="matrix(1 0 0 1 -0.00005 -216)"/>
                <path d="m 60.00005 266 c 0 2.210938 -1.789063 4 -4 4 c -2.210938 0 -4 -1.789062 -4 -4 s 1.789062 -4 4 -4 c 2.210937 0 4 1.789062 4 4 z m 0 0" fill="#c0bfbc" stroke="#fdfcfc" stroke-linecap="round" stroke-linejoin="round" stroke-width="2" transform="matrix(1 0 0 1 -0.00005 -216)"/>
                <path d="m 76.00005 266 c 0 2.210938 -1.789063 4 -4 4 c -2.210938 0 -4 -1.789062 -4 -4 s 1.789062 -4 4 -4 c 2.210937 0 4 1.789062 4 4 z m 0 0" fill="#c0bfbc" stroke="#fdfcfc" stroke-linecap="round" stroke-linejoin="round" stroke-width="2" transform="matrix(1 0 0 1 -0.00005 -216)"/>
                <path d="m 92.00005 266 c 0 2.210938 -1.789063 4 -4 4 c -2.210938 0 -4 -1.789062 -4 -4 s 1.789062 -4 4 -4 c 2.210937 0 4 1.789062 4 4 z m 0 0" fill="#c0bfbc" stroke="#fdfcfc" stroke-linecap="round" stroke-linejoin="round" stroke-width="2" transform="matrix(1 0 0 1 -0.00005 -216)"/>
                <path d="m 108.00005 266 c 0 2.210938 -1.789063 4 -4 4 c -2.210938 0 -4 -1.789062 -4 -4 s 1.789062 -4 4 -4 c 2.210937 0 4 1.789062 4 4 z m 0 0" fill="#c0bfbc" stroke="#fdfcfc" stroke-linecap="round" stroke-linejoin="round" stroke-width="2" transform="matrix(1 0 0 1 -0.00005 -216)"/>
                <path d="m 63.972656 73 c 0 4.402344 -3.570312 7.972656 -7.972656 7.972656 s -7.972656 -3.570312 -7.972656 -7.972656 s 3.570312 -7.972656 7.972656 -7.972656 s 7.972656 3.570312 7.972656 7.972656 z m 0 0" fill="#9141ac"/>
            </g>
        </g>
    </mask>
    <mask id="h">
        <g filter="url(#f)">
            <rect fill-opacity="0.8" height="128" width="128"/>
        </g>
    </mask>
    <linearGradient id="i" gradientTransform="matrix(0 0.37 -0.98462 0 295.38501 -30.360001)" gradientUnits="userSpaceOnUse" x1="300" x2="428" y1="235" y2="235">
        <stop offset="0" stop-color="#f9f06b"/>
        <stop offset="1" stop-color="#f5c211"/>
    </linearGradient>
    <clipPath id="j">
        <rect height="128" width="128"/>
    </clipPath>
    <clipPath id="k">
        <rect height="128" width="128"/>
    </clipPath>
    <path d="m 108 117 h -88 c -4.417969 0 -8 -4.234375 -8 -9.453125 v -70.09375 c 0 -5.21875 3.582031 -9.453125 8 -9.453125 h 88 c 4.417969 0 8 4.234375 8 9.453125 v 70.09375 c 0 5.21875 -3.582031 9.453125 -8 9.453125 z m 0 0" fill="url(#a)"/>
    <path d="m 108 115 h -88 c -4.417969 0 -8 -3.582031 -8 -8 v -24 c 0 -4.417969 3.582031 -8 8 -8 h 88 c 4.417969 0 8 3.582031 8 8 v 24 c 0 4.417969 -3.582031 8 -8 8 z m 0 0" fill="url(#b)"/>
    <path d="m 108 109 h -88 c -4.417969 0 -8 -3.582031 -8 -8 v -69.003906 c 0 -4.417969 3.582031 -8 8 -8 h 88 c 4.417969 0 8 3.582031 8 8 v 69.003906 c 0 4.417969 -3.582031 8 -8 8 z m 0 0" fill="url(#c)"/>
    <path d="m 20 13 c -4.433594 0 -8 3.566406 -8 8 v 15 h 104 v -15 c 0 -4.433594 -3.566406 -8 -8 -8 z m 0 0" fill="#9141ac"/>
    <path d="m 12 34 v 2 h 104 v -2 z m 0 0" fill="#613583"/>
    <g stroke="#fdfcfc" stroke-linecap="round" stroke-linejoin="round" stroke-width="2">
        <path d="m 28 96 c 0 2.210938 -1.789063 4 -4 4 c -2.210938 0 -4 -1.789062 -4 -4 s 1.789062 -4 4 -4 c 2.210937 0 4 1.789062 4 4 z m 0 0" fill="#c0bfbc"/>
        <path d="m 44 96 c 0 2.210938 -1.789063 4 -4 4 c -2.210938 0 -4 -1.789062 -4 -4 s 1.789062 -4 4 -4 c 2.210937 0 4 1.789062 4 4 z m 0 0" fill="#c0bfbc"/>
        <path d="m 60 96 c 0 2.210938 -1.789063 4 -4 4 c -2.210938 0 -4 -1.789062 -4 -4 s 1.789062 -4 4 -4 c 2.210937 0 4 1.789062 4 4 z m 0 0" fill="#c0bfbc"/>
        <path d="m 76 96 c 0 2.210938 -1.789063 4 -4 4 c -2.210938 0 -4 -1.789062 -4 -4 s 1.789062 -4 4 -4 c 2.210937 0 4 1.789062 4 4 z m 0 0" fill="#fbfafa"/>
        <path d="m 92 96 c 0 2.210938 -1.789063 4 -4 4 c -2.210938 0 -4 -1.789062 -4 -4 s 1.789062 -4 4 -4 c 2.210937 0 4 1.789062 4 4 z m 0 0" fill="#fbfafa"/>
        <path d="m 108 96 c 0 2.210938 -1.789063 4 -4 4 c -2.210938 0 -4 -1.789062 -4 -4 s 1.789062 -4 4 -4 c 2.210937 0 4 1.789062 4 4 z m 0 0" fill="#fbfafa"/>
        <path d="m 28 73 c 0 2.210938 -1.789063 4 -4 4 c -2.210938 0 -4 -1.789062 -4 -4 s 1.789062 -4 4 -4 c 2.210937 0 4 1.789062 4 4 z m 0 0" fill="#c0bfbc"/>
        <path d="m 44 73 c 0 2.210938 -1.789063 4 -4 4 c -2.210938 0 -4 -1.789062 -4 -4 s 1.789062 -4 4 -4 c 2.210937 0 4 1.789062 4 4 z m 0 0" fill="#c0bfbc"/>
        <path d="m 60 73 c 0 2.210938 -1.789063 4 -4 4 c -2.210938 0 -4 -1.789062 -4 -4 s 1.789062 -4 4 -4 c 2.210937 0 4 1.789062 4 4 z m 0 0" fill="#c0bfbc"/>
        <path d="m 76 73 c 0 2.210938 -1.789063 4 -4 4 c -2.210938 0 -4 -1.789062 -4 -4 s 1.789062 -4 4 -4 c 2.210937 0 4 1.789062 4 4 z m 0 0" fill="#c0bfbc"/>
        <path d="m 92 73 c 0 2.210938 -1.789063 4 -4 4 c -2.210938 0 -4 -1.789062 -4 -4 s 1.789062 -4 4 -4 c 2.210937 0 4 1.789062 4 4 z m 0 0" fill="#c0bfbc"/>
        <path d="m 108 73 c 0 2.210938 -1.789063 4 -4 4 c -2.210938 0 -4 -1.789062 -4 -4 s 1.789062 -4 4 -4 c 2.210937 0 4 1.789062 4 4 z m 0 0" fill="#c0bfbc"/>
        <path d="m 28 50 c 0 2.210938 -1.789063 4 -4 4 c -2.210938 0 -4 -1.789062 -4 -4 s 1.789062 -4 4 -4 c 2.210937 0 4 1.789062 4 4 z m 0 0" fill="#fbfafa"/>
        <path d="m 44 50 c 0 2.210938 -1.789063 4 -4 4 c -2.210938 0 -4 -1.789062 -4 -4 s 1.789062 -4 4 -4 c 2.210937 0 4 1.789062 4 4 z m 0 0" fill="#c0bfbc"/>
        <path d="m 60 50 c 0 2.210938 -1.789063 4 -4 4 c -2.210938 0 -4 -1.789062 -4 -4 s 1.789062 -4 4 -4 c 2.210937 0 4 1.789062 4 4 z m 0 0" fill="#c0bfbc"/>
        <path d="m 76 50 c 0 2.210938 -1.789063 4 -4 4 c -2.210938 0 -4 -1.789062 -4 -4 s 1.789062 -4 4 -4 c 2.210937 0 4 1.789062 4 4 z m 0 0" fill="#c0bfbc"/>
        <path d="m 92 50 c 0 2.210938 -1.789063 4 -4 4 c -2.210938 0 -4 -1.789062 -4 -4 s 1.789062 -4 4 -4 c 2.210937 0 4 1.789062 4 4 z m 0 0" fill="#c0bfbc"/>
        <path d="m 108 50 c 0 2.210938 -1.789063 4 -4 4 c -2.210938 0 -4 -1.789062 -4 -4 s 1.789062 -4 4 -4 c 2.210937 0 4 1.789062 4 4 z m 0 0" fill="#c0bfbc"/>
    </g>
    <path d="m 63.972656 73 c 0 4.402344 -3.570312 7.972656 -7.972656 7.972656 s -7.972656 -3.570312 -7.972656 -7.972656 s 3.570312 -7.972656 7.972656 -7.972656 s 7.972656 3.570312 7.972656 7.972656 z m 0 0" fill="#9141ac"/>
    <g clip-path="url(#k)" mask="url(#g)">
        <g clip-path="url(#j)" mask="url(#h)">
            <path d="m 128 80.640625 v 47.359375 h -128 v -47.359375 z m 0 0" fill="url(#i)"/>
            <path d="m 13.308594 80.640625 l 47.355468 47.359375 h 21.214844 l -47.359375 -47.359375 z m 42.421875 0 l 47.363281 47.359375 h 21.214844 l -47.363282 -47.359375 z m 42.429687 0 l 29.839844 29.839844 v -21.210938 l -8.628906 -8.628906 z m -98.160156 7.90625 v 21.214844 l 18.238281 18.238281 h 21.214844 z m 0 0"/>
        </g>
    </g>
</svg>
